<?xml version="1.0" encoding="UTF-8"?>
<svg width="71px" height="71px" viewBox="0 0 71 71" version="1.1" xmlns="http://www.w3.org/2000/svg" xmlns:xlink="http://www.w3.org/1999/xlink">
    <!-- Generator: sketchtool 49.1 (51147) - http://www.bohemiancoding.com/sketch -->
    <title>364A48C6-C70B-4FFD-A605-183E309FF766</title>
    <desc>Created with sketchtool.</desc>
    <defs>
        <linearGradient x1="0.838810198%" y1="98.6178218%" x2="104.914731%" y2="-4.26096181%" id="linearGradient-1">
            <stop stop-color="#4AFDCB" offset="0%"></stop>
            <stop stop-color="#5DA5FD" offset="100%"></stop>
        </linearGradient>
    </defs>
    <g id="Page-1" stroke="none" stroke-width="1" fill="none" fill-rule="evenodd">
        <g id="Landing-page" transform="translate(-1010.000000, -1307.000000)" fill="url(#linearGradient-1)" fill-rule="nonzero">
            <g id="vision" transform="translate(210.000000, 1093.000000)">
                <g id="Group-40" transform="translate(800.000000, 214.000000)">
                    <g id="Group-17">
                        <g id="vision-icons_edit_outline-02">
                            <path d="M35.3,70.7 C54.8,70.7 70.6,54.8 70.6,35.4 C70.6,26.7 67.4,18.3 61.6,11.9 C55,4.3 45.4,0 35.3,0 C25.2,0 15.7,4.3 9,11.8 C3.2,18.3 0,26.6 0,35.3 C0,54.8 15.9,70.7 35.3,70.7 Z M13.6,56.8 C16.7,55.3 20.4,54.2 24.5,53.5 C25.9,58.8 27.9,63 30.2,65.5 C23.8,64.3 18,61.2 13.6,56.8 Z M45.8,36.6 C45.7,41.4 45.2,46.3 44.2,50.7 C41.3,50.3 38.3,50.1 35.3,50.1 C32.3,50.1 29.3,50.3 26.4,50.7 C25.5,46.3 24.9,41.4 24.8,36.6 L45.8,36.6 Z M24.8,34.1 C24.9,29.3 25.4,24.4 26.4,20 C29.3,20.4 32.3,20.6 35.3,20.6 C38.3,20.6 41.3,20.4 44.2,20 C45.1,24.4 45.7,29.3 45.8,34.1 L24.8,34.1 Z M35.3,65.5 C31.7,65.5 28.8,60.2 26.9,53 C29.6,52.6 32.4,52.4 35.3,52.4 C38.2,52.4 41,52.6 43.7,53 C41.8,60.2 38.9,65.5 35.3,65.5 Z M40.5,65.4 C42.9,62.9 44.8,58.7 46.2,53.4 C50.2,54.1 54,55.3 57.1,56.7 C52.6,61.2 46.9,64.3 40.5,65.4 Z M58.7,54.9 C55.3,53.2 51.2,51.9 46.7,51.1 C47.6,46.8 48.2,41.9 48.2,36.6 L65.7,36.6 C65.5,43.5 62.9,49.9 58.7,54.9 Z M65.8,34.1 L48.3,34.1 C48.2,28.8 47.7,23.9 46.8,19.6 C51.3,18.8 55.4,17.5 58.8,15.8 C63.1,21 65.5,27.4 65.8,34.1 Z M57,13.9 C53.9,15.4 50.2,16.5 46.1,17.2 C44.7,11.9 42.7,7.7 40.4,5.2 C46.7,6.3 52.5,9.4 57,13.9 Z M35.3,5.1 C38.9,5.1 41.8,10.4 43.7,17.6 C41,18 38.2,18.2 35.3,18.2 C32.4,18.2 29.6,18 26.9,17.6 C28.8,10.4 31.8,5.1 35.3,5.1 Z M30.2,5.3 C27.8,7.8 25.9,12 24.5,17.3 C20.5,16.6 16.7,15.4 13.6,14 C18.1,9.4 24,6.3 30.2,5.3 Z M11.9,15.8 C15.3,17.5 19.4,18.8 23.9,19.6 C23,23.9 22.4,28.8 22.4,34.1 L4.9,34.1 C5.1,27.4 7.6,21 11.9,15.8 Z M22.4,36.6 C22.5,41.9 23,46.8 23.9,51.1 C19.4,51.9 15.3,53.2 11.9,54.9 C7.7,49.9 5.1,43.5 4.8,36.6 L22.4,36.6 Z" id="Shape"></path>
                        </g>
                    </g>
                </g>
            </g>
        </g>
    </g>
</svg>