<?xml version="1.0" encoding="UTF-8"?>
<svg width="61px" height="72px" viewBox="0 0 61 72" version="1.1" xmlns="http://www.w3.org/2000/svg" xmlns:xlink="http://www.w3.org/1999/xlink">
    <!-- Generator: sketchtool 49.1 (51147) - http://www.bohemiancoding.com/sketch -->
    <title>A6D10203-E7A6-4A2C-B388-AC4973DB5685</title>
    <desc>Created with sketchtool.</desc>
    <defs>
        <linearGradient x1="-6.47314662%" y1="91.9591292%" x2="105.724053%" y2="-2.72598315%" id="linearGradient-1">
            <stop stop-color="#4AFDCB" offset="0%"></stop>
            <stop stop-color="#5DA5FD" offset="100%"></stop>
        </linearGradient>
        <linearGradient x1="-169.273619%" y1="186.845755%" x2="320.459036%" y2="-131.153302%" id="linearGradient-2">
            <stop stop-color="#4AFDCB" offset="0%"></stop>
            <stop stop-color="#5DA5FD" offset="100%"></stop>
        </linearGradient>
    </defs>
    <g id="Page-1" stroke="none" stroke-width="1" fill="none" fill-rule="evenodd">
        <g id="Landing-page" transform="translate(-212.000000, -1515.000000)" fill-rule="nonzero">
            <g id="vision" transform="translate(210.000000, 1093.000000)">
                <g id="Group-38" transform="translate(0.000000, 214.000000)">
                    <g id="Group-18" transform="translate(2.000000, 199.000000)">
                        <g id="vision-icons_edit_outline-04" transform="translate(0.000000, 9.000000)">
                            <path d="M42.9,30.8 L42.9,27.5 L58.3,27.5 L58.3,11.3 L46.6,11.3 L46.6,0 L3.7,0 L3.7,16.3 L15.4,16.3 L15.4,22.7 L0,22.7 L0,34 L0,38.9 L0,45.3 L0,50.2 L0,61.5 L23.1,61.5 C26.7,67.3 33.1,71.2 40.4,71.2 C51.6,71.2 60.7,62.1 60.7,50.9 C60.7,40.6 52.9,32.1 42.9,30.8 Z M53.3,16.3 L53.3,22.7 L42.9,22.7 L20.3,22.7 L20.3,16.3 L46.5,16.3 L53.3,16.3 Z M8.6,11.3 L8.6,4.9 L41.6,4.9 L41.6,11.3 L15.4,11.3 L8.6,11.3 Z M4.9,27.6 L15.3,27.6 L38,27.6 L38,30.9 C34.9,31.3 32,32.4 29.4,34 L4.9,34 L4.9,27.6 Z M4.9,56.6 L4.9,50.2 L20.1,50.2 C20.1,50.4 20.1,50.7 20.1,50.9 C20.1,52.9 20.4,54.7 20.9,56.5 L4.9,56.5 L4.9,56.6 Z M21,45.3 L5,45.3 L5,38.9 L24.2,38.9 C22.7,40.8 21.6,43 21,45.3 Z M40.4,66.4 C36,66.4 32,64.5 29.2,61.6 C28.5,60.8 27.8,60 27.3,59.1 C26.8,58.3 26.4,57.5 26.1,56.6 C25.4,54.9 25,53 25,51 C25,50.7 25,50.5 25,50.3 C25,49.5 25.1,48.6 25.3,47.8 C25.5,46.9 25.7,46.1 26.1,45.3 C27.1,42.8 28.8,40.6 30.8,38.9 C32.1,37.8 33.7,37 35.3,36.4 C36.9,35.8 38.6,35.5 40.4,35.5 C40.4,35.5 40.4,35.5 40.4,35.5 C41.2,35.5 42.1,35.6 42.9,35.7 C50.2,37 55.8,43.3 55.8,51 C55.8,59.5 48.9,66.4 40.4,66.4 Z" id="Shape" fill="url(#linearGradient-1)"></path>
                            <path d="M45.3,50 C45.9,49.2 46.2,48.3 46.2,47.3 L46.2,47.2 C46.2,45.3 45,43.6 43.3,43 L43.3,40.4 L42.9,40.4 L41.1,40.4 L41.1,42.7 L40.5,42.7 L39.2,42.7 L39.2,40.4 L38,40.4 L36.9,40.4 L36.9,42.7 L36.6,42.7 L35.5,42.7 L34,42.7 L34,44.9 L35.4,44.9 L35.4,45.2 L35.4,47.7 L35.4,49.5 L35.4,50.2 L35.4,51.8 L35.4,56.6 L35.4,57 L34,57 L34,59.1 L34,59.3 L35.4,59.3 L36.5,59.3 L36.8,59.3 L36.8,61.6 L39,61.6 L39,59.3 L41,59.3 L41,61.6 L42.8,61.6 L43.2,61.6 L43.2,59.3 C45.8,59.2 47.9,57.1 47.9,54.5 L47.9,54.4 C48,52.5 46.9,50.8 45.3,50 Z M37.7,47.8 L37.7,45.3 L37.7,45 L38,45 L40.5,45 L41.8,45 C42.2,45 42.6,45.1 43,45.3 C43.6,45.7 44.1,46.4 44.1,47.2 L44.1,47.3 C44.1,48.1 43.7,48.8 43,49.2 C42.7,49.4 42.3,49.5 41.8,49.5 L40.5,49.5 L37.7,49.5 L37.7,47.8 Z M45.7,54.5 C45.7,55.9 44.6,57.1 43.1,57.1 L42.8,57.1 L40.3,57.1 L37.5,57.1 L37.5,56.7 L37.5,51.9 L38,51.9 L40.5,51.9 L41.8,51.9 L43,51.9 L43.3,51.9 C44.6,51.8 45.7,52.9 45.7,54.5 Z" id="Shape" fill="url(#linearGradient-2)"></path>
                        </g>
                    </g>
                </g>
            </g>
        </g>
    </g>
</svg>