<?xml version="1.0" encoding="UTF-8"?>
<svg width="263px" height="31px" viewBox="0 0 263 31" version="1.1" xmlns="http://www.w3.org/2000/svg" xmlns:xlink="http://www.w3.org/1999/xlink">
    <!-- Generator: Sketch 49.1 (51147) - http://www.bohemiancoding.com/sketch -->
    <title>membrana_logo</title>
    <desc>Created with Sketch.</desc>
    <defs></defs>
    <g id="Page-1" stroke="none" stroke-width="1" fill="none" fill-rule="evenodd">
        <g id="Landing-page" transform="translate(-290.000000, -50.000000)" fill-rule="nonzero">
            <g id="menu" transform="translate(290.000000, 47.000000)">
                <g id="membrana_logo" transform="translate(0.000000, 3.000000)">
                    <polygon id="Shape" fill="#219370" points="17 17 0 6.35514019 0 0 17 10.6448598"></polygon>
                    <polygon id="Shape" fill="#219370" points="17 26 0 15.3551402 0 9 17 19.8037383"></polygon>
                    <polygon id="Shape" fill="#219370" points="9 31 0 25.5753425 0 19 9 24.4246575"></polygon>
                    <polygon id="Shape" fill="#32BA94" points="17 17 35 6.35514019 35 0 17 10.6448598"></polygon>
                    <polygon id="Shape" fill="#32BA94" points="17 26 35 15.3551402 35 9 17 19.8037383"></polygon>
                    <polygon id="Shape" fill="#32BA94" points="26 31 35 25.5753425 35 19 26 24.4246575"></polygon>
                    <polygon id="Shape" fill="#32BA94" points="84 5.15702479 84 24 81.8918919 24 81.8918919 8.45454545 74.7567568 18.0330579 68.1081081 8.45454545 68.1081081 23.8429752 66 23.8429752 66 5 68.2702703 5 74.9189189 14.7355372 81.7297297 5"></polygon>
                    <polygon id="Shape" fill="#32BA94" points="95 5 107 5 107 6.91596639 97.0526316 6.91596639 97.0526316 13.4621849 105.736842 13.4621849 105.736842 15.5378151 97.0526316 15.5378151 97.0526316 22.0840336 107 22.0840336 107 24 95 24"></polygon>
                    <polygon id="Shape" fill="#32BA94" points="135 5.15702479 135 24 132.990909 24 132.990909 8.45454545 126.190909 18.0330579 120.009091 8.45454545 120.009091 23.8429752 118 23.8429752 118 5 120.163636 5 126.5 14.7355372 132.990909 5"></polygon>
                    <path d="M160.003989,15.7496911 C160.654189,16.5401095 160.979288,17.6466954 160.979288,18.7532812 C161.141838,20.3341182 160.329089,21.7568714 159.19124,22.7053735 C157.565741,23.6538757 155.777693,24.1281268 153.989644,23.9700431 L147,23.9700431 L147,5 L153.501995,5 C157.890841,5 160.003989,6.73892062 160.003989,10.0586782 C160.003989,10.8490966 159.841439,11.4814314 159.51634,12.1137662 C159.19124,12.5880172 158.86614,12.9041846 158.54104,13.220352 L157.890841,13.6946031 C158.54104,14.4850215 159.35379,14.9592726 160.003989,15.7496911 Z M148.950598,13.5365194 L153.827094,13.5365194 C154.802394,13.5365194 155.777693,13.3784357 156.752992,12.9041846 C157.565741,12.4299335 157.890841,11.4814314 157.890841,10.5329292 C158.053391,9.58442708 157.565741,8.63592492 156.915542,8.00359015 C155.940243,7.52933908 154.802394,7.21317169 153.827094,7.21317169 L149.275698,7.21317169 L148.950598,13.5365194 Z M157.565741,21.5987877 C158.54104,20.9664529 159.02869,19.8598671 158.86614,18.7532812 C159.02869,17.6466954 158.54104,16.5401095 157.565741,16.0658585 C156.427892,15.5916074 155.290043,15.4335237 153.989644,15.4335237 L148.950598,15.4335237 L148.950598,22.3892062 L153.989644,22.3892062 C155.290043,22.3892062 156.427892,22.0730388 157.565741,21.5987877 Z" id="Shape" fill="#32BA94"></path>
                    <path d="M182.797753,24 L177.921348,16.4118565 L173.044944,16.4118565 L173.044944,24 L171,24 L171,5.02964119 L178.707865,5.02964119 C180.280899,4.87155486 181.696629,5.34581383 182.797753,6.4524181 C183.741573,7.55902236 184.370787,9.1398856 184.213483,10.5626625 C184.213483,11.8273531 183.898876,13.25013 183.11236,14.1986479 C182.325843,15.1471659 181.224719,15.9375975 179.966292,16.0956838 L185,24 L182.797753,24 Z M173.044944,14.5148206 L177.764045,14.5148206 C179.022472,14.6729069 180.123596,14.3567343 181.224719,13.5663027 C182.011236,12.775871 182.325843,11.8273531 182.325843,10.7207488 C182.325843,9.77223089 182.168539,8.66562663 181.539326,7.87519501 C180.752809,7.08476339 179.651685,6.76859074 178.707865,6.92667707 L173.202247,6.92667707 L173.044944,14.5148206 Z" id="Shape" fill="#32BA94"></path>
                    <path d="M206.477064,18.1416667 L198.366972,18.1416667 L196.183486,24 L194,24 L201.486239,5 L203.513761,5 L211,24 L208.816514,24 L206.477064,18.1416667 Z M205.697248,16.2416667 L202.422018,7.53333333 L199.146789,16.2416667 L205.697248,16.2416667 Z" id="Shape" fill="#32BA94"></path>
                    <polygon id="Shape" fill="#32BA94" points="236 5 236 24 233.737374 24 222.10101 8.00833333 222.10101 24 220 24 220 5 222.424242 5 233.89899 21.15 233.89899 5"></polygon>
                    <path d="M258.477064,18.1416667 L250.366972,18.1416667 L248.183486,24 L246,24 L253.486239,5 L255.513761,5 L263,24 L260.816514,24 L258.477064,18.1416667 Z M257.697248,16.2416667 L254.422018,7.53333333 L251.146789,16.2416667 L257.697248,16.2416667 Z" id="Shape" fill="#32BA94"></path>
                </g>
            </g>
        </g>
    </g>
</svg>