<?xml version="1.0" encoding="UTF-8"?>
<svg width="55px" height="55px" viewBox="0 0 55 55" version="1.1" xmlns="http://www.w3.org/2000/svg" xmlns:xlink="http://www.w3.org/1999/xlink">
    <!-- Generator: Sketch 49.1 (51147) - http://www.bohemiancoding.com/sketch -->
    <title>Group 37</title>
    <desc>Created with Sketch.</desc>
    <defs></defs>
    <g id="Page-1" stroke="none" stroke-width="1" fill="none" fill-rule="evenodd" opacity="0.5">
        <g id="Landing-page" transform="translate(-437.000000, -897.000000)" fill="#353850">
            <g id="background" transform="translate(-1054.000000, -474.000000)">
                <g id="Page-1" transform="translate(809.000000, 373.000000)">
                    <g id="Group-37" transform="translate(682.000000, 998.000000)">
                        <polygon id="Fill-1028" points="53 0 53 0.75 53 1.5 53.75 1.5 54.5 1.5 54.5 0.75 54.5 0 53.75 0"></polygon>
                        <polygon id="Fill-1029" points="53 53 53 53.75 53 54.5 53.75 54.5 54.5 54.5 54.5 53.75 54.5 53 53.75 53"></polygon>
                        <polygon id="Fill-1154" points="0 0 0 0.75 0 1.5 0.750199309 1.5 1.5 1.5 1.5 0.75 1.5 0 0.750199309 0"></polygon>
                        <polygon id="Fill-1155" points="0 53 0 53.75 0 54.5 0.750199309 54.5 1.5 54.5 1.5 53.75 1.5 53 0.750199309 53"></polygon>
                    </g>
                </g>
            </g>
        </g>
    </g>
</svg>