<?xml version="1.0" encoding="UTF-8"?>
<svg width="1917px" height="329px" viewBox="0 0 1917 329" version="1.1" xmlns="http://www.w3.org/2000/svg" xmlns:xlink="http://www.w3.org/1999/xlink">
    <!-- Generator: Sketch 49.1 (51147) - http://www.bohemiancoding.com/sketch -->
    <title>pattern</title>
    <desc>Created with Sketch.</desc>
    <defs>
        <polygon id="path-1" points="0.2469 0.5002 0.747 0.5002 0.747 164.5002 0.2469 164.5002"></polygon>
        <polygon id="path-3" points="0.2469 0.5002 0.747 0.5002 0.747 164.5002 0.2469 164.5002"></polygon>
    </defs>
    <g id="Page-1" stroke="none" stroke-width="1" fill="none" fill-rule="evenodd" opacity="0.469999999">
        <g id="Landing-page" transform="translate(-1.000000, -9319.000000)">
            <g id="background" transform="translate(-1054.000000, -474.000000)">
                <g id="pattern" transform="translate(1055.000000, 9793.000000)">
                    <polygon id="Stroke-1" stroke="#8386A8" stroke-linecap="round" stroke-linejoin="round" points="1331.2469 164.5002 1233.7469 246.5002 1136.2469 164.5002 1233.7469 82.5002"></polygon>
                    <polygon id="Stroke-2" stroke="#8386A8" stroke-linecap="round" stroke-linejoin="round" points="1233.7469 246.5002 1271.2469 164.5002 1233.7469 82.5002 1196.2469 164.5002"></polygon>
                    <path d="M1196.2469,164.5002 L1136.2469,164.5002" id="Stroke-3" stroke="#8386A8" stroke-linecap="round" stroke-linejoin="round"></path>
                    <path d="M1271.2469,164.5002 L1331.2469,164.5002" id="Stroke-4" stroke="#8386A8" stroke-linecap="round" stroke-linejoin="round"></path>
                    <path d="M1233.7469,82.5002 L1233.7469,246.5002" id="Stroke-5" stroke="#8386A8" stroke-linecap="round" stroke-linejoin="round"></path>
                    <polygon id="Stroke-6" stroke="#8386A8" stroke-linecap="round" stroke-linejoin="round" points="1526.2469 164.5002 1428.7469 246.5002 1331.2469 164.5002 1428.7469 82.5002"></polygon>
                    <polygon id="Stroke-7" stroke="#8386A8" stroke-linecap="round" stroke-linejoin="round" points="1428.7469 246.5002 1466.2469 164.5002 1428.7469 82.5002 1391.2469 164.5002"></polygon>
                    <path d="M1391.2469,164.5002 L1331.2469,164.5002" id="Stroke-8" stroke="#8386A8" stroke-linecap="round" stroke-linejoin="round"></path>
                    <path d="M1466.2469,164.5002 L1526.2469,164.5002" id="Stroke-9" stroke="#8386A8" stroke-linecap="round" stroke-linejoin="round"></path>
                    <path d="M1428.7469,82.5002 L1428.7469,246.5002" id="Stroke-10" stroke="#8386A8" stroke-linecap="round" stroke-linejoin="round"></path>
                    <g id="Group-15" transform="translate(1233.000000, 0.000000)" stroke="#8386A8" stroke-linecap="round" stroke-linejoin="round">
                        <polygon id="Stroke-11" points="195.7469 82.5002 98.2469 164.5002 0.7469 82.5002 98.2469 0.5002"></polygon>
                        <polygon id="Stroke-13" points="98.2469 164.5002 135.7469 82.5002 98.2469 0.5002 60.7469 82.5002"></polygon>
                    </g>
                    <path d="M1293.7469,82.5002 L1233.7469,82.5002" id="Stroke-16" stroke="#8386A8" stroke-linecap="round" stroke-linejoin="round"></path>
                    <path d="M1368.7469,82.5002 L1428.7469,82.5002" id="Stroke-17" stroke="#8386A8" stroke-linecap="round" stroke-linejoin="round"></path>
                    <g id="Group-24" transform="translate(1331.000000, 0.000000)" stroke="#8386A8" stroke-linecap="round" stroke-linejoin="round">
                        <path d="M0.2469,0.5002 L0.2469,164.5002" id="Stroke-18"></path>
                        <polygon id="Stroke-20" points="292.7469 246.5002 195.2469 328.5002 97.7469 246.5002 195.2469 164.5002"></polygon>
                        <polygon id="Stroke-22" points="195.2469 328.5002 232.7469 246.5002 195.2469 164.5002 157.7469 246.5002"></polygon>
                    </g>
                    <path d="M1488.7469,246.5002 L1428.7469,246.5002" id="Stroke-25" stroke="#8386A8" stroke-linecap="round" stroke-linejoin="round"></path>
                    <path d="M1563.7469,246.5002 L1623.7469,246.5002" id="Stroke-26" stroke="#8386A8" stroke-linecap="round" stroke-linejoin="round"></path>
                    <g id="Group-31" transform="translate(1526.000000, 82.000000)" stroke="#8386A8" stroke-linecap="round" stroke-linejoin="round">
                        <path d="M0.2469,82.5002 L0.2469,246.5002" id="Stroke-27"></path>
                        <polygon id="Stroke-29" points="195.2469 82.5002 292.7469 164.5002 390.2469 82.5002 292.7469 0.5002"></polygon>
                    </g>
                    <polygon id="Stroke-32" stroke="#8386A8" stroke-linecap="round" stroke-linejoin="round" points="1818.7469 246.5002 1781.2469 164.5002 1818.7469 82.5002 1856.2469 164.5002"></polygon>
                    <path d="M1856.2469,164.5002 L1916.2469,164.5002" id="Stroke-33" stroke="#8386A8" stroke-linecap="round" stroke-linejoin="round"></path>
                    <path d="M1781.2469,164.5002 L1721.2469,164.5002" id="Stroke-35" stroke="#8386A8" stroke-linecap="round" stroke-linejoin="round"></path>
                    <path d="M1818.7469,82.5002 L1818.7469,246.5002" id="Stroke-36" stroke="#8386A8" stroke-linecap="round" stroke-linejoin="round"></path>
                    <polygon id="Stroke-37" stroke="#8386A8" stroke-linecap="round" stroke-linejoin="round" points="1526.2469 164.5002 1623.7469 246.5002 1721.2469 164.5002 1623.7469 82.5002"></polygon>
                    <polygon id="Stroke-38" stroke="#8386A8" stroke-linecap="round" stroke-linejoin="round" points="1623.7469 246.5002 1586.2469 164.5002 1623.7469 82.5002 1661.2469 164.5002"></polygon>
                    <path d="M1661.2469,164.5002 L1721.2469,164.5002" id="Stroke-39" stroke="#8386A8" stroke-linecap="round" stroke-linejoin="round"></path>
                    <path d="M1586.2469,164.5002 L1526.2469,164.5002" id="Stroke-40" stroke="#8386A8" stroke-linecap="round" stroke-linejoin="round"></path>
                    <path d="M1623.7469,82.5002 L1623.7469,246.5002" id="Stroke-41" stroke="#8386A8" stroke-linecap="round" stroke-linejoin="round"></path>
                    <g id="Group-46" transform="translate(1623.000000, 0.000000)" stroke="#8386A8" stroke-linecap="round" stroke-linejoin="round">
                        <polygon id="Stroke-42" points="0.7469 82.5002 98.2469 164.5002 195.7469 82.5002 98.2469 0.5002"></polygon>
                        <polygon id="Stroke-44" points="98.2469 164.5002 60.7469 82.5002 98.2469 0.5002 135.7469 82.5002"></polygon>
                    </g>
                    <path d="M1758.7469,82.5002 L1818.7469,82.5002" id="Stroke-47" stroke="#8386A8" stroke-linecap="round" stroke-linejoin="round"></path>
                    <path d="M1683.7469,82.5002 L1623.7469,82.5002" id="Stroke-48" stroke="#8386A8" stroke-linecap="round" stroke-linejoin="round"></path>
                    <g id="Group-55" transform="translate(1721.000000, 0.000000)" stroke="#8386A8" stroke-linecap="round" stroke-linejoin="round">
                        <path d="M0.2469,0.5002 L0.2469,164.5002" id="Stroke-49"></path>
                        <polyline id="Stroke-51" points="195.2469 0.5002 97.7469 82.5002 195.2469 164.5002"></polyline>
                        <polyline id="Stroke-53" points="195.2469 164.5002 157.7469 82.5002 195.2469 0.5002"></polyline>
                    </g>
                    <path d="M1878.7469,82.5002 L1818.7469,82.5002" id="Stroke-56" stroke="#8386A8" stroke-linecap="round" stroke-linejoin="round"></path>
                    <g id="Group-64" transform="translate(1818.000000, 0.000000)">
                        <g id="Group-59" transform="translate(98.000000, 0.000000)">
                            <mask id="mask-2" fill="white">
                                <use xlink:href="#path-1"></use>
                            </mask>
                            <g id="Clip-58"></g>
                            <path d="M0.2469,0.5002 L0.2469,164.5002" id="Stroke-57" stroke="#8386A8" stroke-linecap="round" stroke-linejoin="round" mask="url(#mask-2)"></path>
                        </g>
                        <polyline id="Stroke-60" stroke="#8386A8" stroke-linecap="round" stroke-linejoin="round" points="98.2469 164.5002 0.7469 246.5002 98.2469 328.5002"></polyline>
                        <polyline id="Stroke-62" stroke="#8386A8" stroke-linecap="round" stroke-linejoin="round" points="98.2469 328.5002 60.7469 246.5002 98.2469 164.5002"></polyline>
                    </g>
                    <path d="M1878.7469,246.5002 L1818.7469,246.5002" id="Stroke-65" stroke="#8386A8" stroke-linecap="round" stroke-linejoin="round"></path>
                    <g id="Group-73" transform="translate(1623.000000, 164.000000)">
                        <g id="Group-68" transform="translate(293.000000, 0.000000)">
                            <mask id="mask-4" fill="white">
                                <use xlink:href="#path-3"></use>
                            </mask>
                            <g id="Clip-67"></g>
                            <path d="M0.2469,0.5002 L0.2469,164.5002" id="Stroke-66" stroke="#8386A8" stroke-linecap="round" stroke-linejoin="round" mask="url(#mask-4)"></path>
                        </g>
                        <polygon id="Stroke-69" stroke="#8386A8" stroke-linecap="round" stroke-linejoin="round" points="0.7469 82.5002 98.2469 164.5002 195.7469 82.5002 98.2469 0.5002"></polygon>
                        <polygon id="Stroke-71" stroke="#8386A8" stroke-linecap="round" stroke-linejoin="round" points="98.2469 164.5002 60.7469 82.5002 98.2469 0.5002 135.7469 82.5002"></polygon>
                    </g>
                    <path d="M1758.7469,246.5002 L1818.7469,246.5002" id="Stroke-74" stroke="#8386A8" stroke-linecap="round" stroke-linejoin="round"></path>
                    <path d="M1683.7469,246.5002 L1623.7469,246.5002" id="Stroke-75" stroke="#8386A8" stroke-linecap="round" stroke-linejoin="round"></path>
                    <path d="M1721.2469,164.5002 L1721.2469,328.5002" id="Stroke-76" stroke="#8386A8" stroke-linecap="round" stroke-linejoin="round"></path>
                    <g id="Group-42" stroke="#8386A8" stroke-linecap="round" stroke-linejoin="round">
                        <polygon id="Stroke-78" points="585.4999 164.5002 682.9999 246.5002 780.4999 164.5002 682.9999 82.5002"></polygon>
                        <polygon id="Stroke-79" points="682.9999 246.5002 645.4999 164.5002 682.9999 82.5002 720.4999 164.5002"></polygon>
                        <path d="M720.4999,164.5002 L780.4999,164.5002" id="Stroke-80"></path>
                        <path d="M645.4999,164.5002 L585.4999,164.5002" id="Stroke-81"></path>
                        <path d="M682.9999,82.5002 L682.9999,246.5002" id="Stroke-82"></path>
                        <polygon id="Stroke-83" points="390.4999 164.5002 487.9999 246.5002 585.4999 164.5002 487.9999 82.5002"></polygon>
                        <polygon id="Stroke-84" points="487.9999 246.5002 450.4999 164.5002 487.9999 82.5002 525.4999 164.5002"></polygon>
                        <path d="M525.4999,164.5002 L585.4999,164.5002" id="Stroke-85"></path>
                        <path d="M450.4999,164.5002 L390.4999,164.5002" id="Stroke-86"></path>
                        <path d="M487.9999,82.5002 L487.9999,246.5002" id="Stroke-87"></path>
                        <g id="Group-92" transform="translate(488.000000, 0.000000)">
                            <polygon id="Stroke-88" points="-0.0001 82.5002 97.4999 164.5002 194.9999 82.5002 97.4999 0.5002"></polygon>
                            <polygon id="Stroke-90" points="97.4999 164.5002 59.9999 82.5002 97.4999 0.5002 134.9999 82.5002"></polygon>
                        </g>
                        <path d="M622.9999,82.5002 L682.9999,82.5002" id="Stroke-93"></path>
                        <path d="M547.9999,82.5002 L487.9999,82.5002" id="Stroke-94"></path>
                        <g id="Group-101" transform="translate(293.000000, 0.000000)">
                            <path d="M292.4999,0.5002 L292.4999,164.5002" id="Stroke-95"></path>
                            <polygon id="Stroke-97" points="-0.0001 246.5002 97.4999 328.5002 194.9999 246.5002 97.4999 164.5002"></polygon>
                            <polygon id="Stroke-99" points="97.4999 328.5002 59.9999 246.5002 97.4999 164.5002 134.9999 246.5002"></polygon>
                        </g>
                        <path d="M427.9999,246.5002 L487.9999,246.5002" id="Stroke-102"></path>
                        <path d="M352.9999,246.5002 L292.9999,246.5002" id="Stroke-103"></path>
                        <g id="Group-108" transform="translate(0.000000, 82.000000)">
                            <path d="M390.4999,82.5002 L390.4999,246.5002" id="Stroke-104"></path>
                            <polygon id="Stroke-106" points="195.4999 82.5002 97.9999 164.5002 0.4999 82.5002 97.9999 0.5002"></polygon>
                        </g>
                        <polygon id="Stroke-109" points="97.9999 246.5002 135.4999 164.5002 97.9999 82.5002 60.4999 164.5002"></polygon>
                        <path d="M60.4999,164.5002 L0.4999,164.5002" id="Stroke-110"></path>
                        <path d="M135.4999,164.5002 L195.4999,164.5002" id="Stroke-112"></path>
                        <path d="M97.9999,82.5002 L97.9999,246.5002" id="Stroke-113"></path>
                        <polygon id="Stroke-114" points="390.4999 164.5002 292.9999 246.5002 195.4999 164.5002 292.9999 82.5002"></polygon>
                        <polygon id="Stroke-115" points="292.9999 246.5002 330.4999 164.5002 292.9999 82.5002 255.4999 164.5002"></polygon>
                        <path d="M255.4999,164.5002 L195.4999,164.5002" id="Stroke-116"></path>
                        <path d="M330.4999,164.5002 L390.4999,164.5002" id="Stroke-117"></path>
                        <path d="M292.9999,82.5002 L292.9999,246.5002" id="Stroke-118"></path>
                        <g id="Group-123" transform="translate(98.000000, 0.000000)">
                            <polygon id="Stroke-119" points="194.9999 82.5002 97.4999 164.5002 -0.0001 82.5002 97.4999 0.5002"></polygon>
                            <polygon id="Stroke-121" points="97.4999 164.5002 134.9999 82.5002 97.4999 0.5002 59.9999 82.5002"></polygon>
                        </g>
                        <path d="M157.9999,82.5002 L97.9999,82.5002" id="Stroke-124"></path>
                        <path d="M232.9999,82.5002 L292.9999,82.5002" id="Stroke-125"></path>
                        <g id="Group-132">
                            <path d="M195.4999,0.5002 L195.4999,164.5002" id="Stroke-126"></path>
                            <polyline id="Stroke-128" points="0.4999 0.5002 97.9999 82.5002 0.4999 164.5002"></polyline>
                            <polyline id="Stroke-130" points="0.4999 164.5002 37.9999 82.5002 0.4999 0.5002"></polyline>
                        </g>
                        <path d="M37.9999,82.5002 L97.9999,82.5002" id="Stroke-133"></path>
                        <g id="Group-140">
                            <path d="M0.4999,0.5002 L0.4999,164.5002" id="Stroke-134"></path>
                            <polyline id="Stroke-136" points="0.4999 164.5002 97.9999 246.5002 0.4999 328.5002"></polyline>
                            <polyline id="Stroke-138" points="0.4999 328.5002 37.9999 246.5002 0.4999 164.5002"></polyline>
                        </g>
                        <path d="M37.9999,246.5002 L97.9999,246.5002" id="Stroke-141"></path>
                        <g id="Group-148" transform="translate(0.000000, 164.000000)">
                            <path d="M0.4999,0.5002 L0.4999,164.5002" id="Stroke-142"></path>
                            <polygon id="Stroke-144" points="292.9999 82.5002 195.4999 164.5002 97.9999 82.5002 195.4999 0.5002"></polygon>
                            <polygon id="Stroke-146" points="195.4999 164.5002 232.9999 82.5002 195.4999 0.5002 157.9999 82.5002"></polygon>
                        </g>
                        <path d="M157.9999,246.5002 L97.9999,246.5002" id="Stroke-149"></path>
                        <path d="M232.9999,246.5002 L292.9999,246.5002" id="Stroke-150"></path>
                        <path d="M195.4999,164.5002 L195.4999,328.5002" id="Stroke-151"></path>
                    </g>
                </g>
            </g>
        </g>
    </g>
</svg>