<?xml version="1.0" encoding="UTF-8"?>
<svg width="48px" height="51px" viewBox="0 0 48 51" version="1.1" xmlns="http://www.w3.org/2000/svg" xmlns:xlink="http://www.w3.org/1999/xlink">
    <!-- Generator: sketchtool 49.1 (51147) - http://www.bohemiancoding.com/sketch -->
    <g id="Page-1" stroke="none" stroke-width="1" fill="none" fill-rule="evenodd">
        <g id="Landing-page" transform="translate(-1009.000000, -9804.000000)">
            <g id="social-icons" transform="translate(513.000000, 9804.000000)">
                <g id="Page-1" transform="translate(496.000000, 0.000000)">
                    <g id="Group-3" transform="translate(0.000000, 4.998600)">
                        <g id="Clip-2"></g>
                        <path d="M38.4664,0.7411 C36.2544,2.5961 33.9714,4.8801 33.0434,7.6621 C31.9734,10.9451 33.4714,14.2981 34.8994,17.2241 C36.3254,20.2201 37.8964,23.1461 39.2514,26.2141 C40.3214,28.6401 41.8204,31.4941 41.4634,34.2061 C41.1784,36.1331 40.5354,37.9881 40.1794,39.9141 C39.8934,41.1991 41.1064,39.9141 41.5344,39.5571 C44.0314,37.4171 46.7434,34.9911 47.7424,31.7091 C48.2414,30.0681 47.9564,28.5691 47.3854,26.9991 C46.8154,25.5011 46.1724,24.0741 45.5304,22.5751 C44.1744,19.5781 42.7474,16.5811 41.3204,13.5851 C40.7494,12.5141 40.1794,11.3731 39.6794,10.2311 C39.1804,9.0181 38.8944,7.7341 38.8224,6.3781 C38.7514,5.3071 38.7514,4.3081 38.8944,3.2381 C38.9654,2.4531 39.1804,1.7401 39.2514,0.9551 C39.3224,0.5271 38.9654,0.3841 38.4664,0.7411 M5.7864,0.7411 C3.5734,2.5961 1.2904,4.8801 0.3624,7.6621 C-0.7076,10.9451 0.7914,14.2981 2.2184,17.2241 C3.6464,20.2201 5.2154,23.1461 6.5704,26.2141 C7.6414,28.6401 9.1404,31.4941 8.7824,34.2061 C8.4974,36.1331 7.8554,37.9881 7.4984,39.9141 C7.2134,41.1991 8.4264,39.9141 8.8544,39.5571 C11.3524,37.4171 14.0634,34.9911 15.0624,31.7091 C15.5624,30.0681 15.2764,28.5691 14.7054,26.9991 C14.1344,25.5011 13.4924,24.0741 12.8504,22.5751 C11.4944,19.5781 10.0684,16.5811 8.6404,13.5851 C8.0704,12.5141 7.4984,11.3731 6.9994,10.2311 C6.4994,9.0181 6.2144,7.7341 6.1434,6.3781 C6.0714,5.3071 6.0714,4.3081 6.2144,3.2381 C6.2854,2.4531 6.4994,1.7401 6.5704,0.9551 C6.6424,0.5271 6.2854,0.3841 5.7864,0.7411" id="Fill-1" fill="#8386A8"></path>
                    </g>
                    <path d="M21.6265,0.3169 C19.1295,2.3859 16.4175,4.8829 14.9195,7.8089 C13.8495,9.8789 13.7065,12.0189 14.2765,14.1589 C14.9905,16.7279 15.9895,19.2969 17.0605,21.7949 C19.1295,26.5749 21.8415,31.0699 23.8385,35.9219 C24.5525,37.6349 25.3375,39.5619 25.4805,41.4879 C25.6225,43.8429 24.8375,46.3399 24.1955,48.5519 C24.0535,49.1939 23.6245,50.0509 23.6955,50.6929 C23.7675,51.1919 24.0535,50.9779 24.3385,50.7639 C25.5515,49.8369 26.7645,48.7659 27.8345,47.6959 C30.7605,44.9129 34.1135,41.2029 33.8285,36.8499 C33.6865,35.0669 32.8295,33.3539 32.1155,31.7129 C31.3305,29.7859 30.4755,27.9309 29.6185,26.0759 C28.0485,22.5789 26.4075,19.1539 24.6945,15.7289 C24.1245,14.5159 23.4105,13.3749 22.9825,12.1619 C22.3405,10.5209 22.0555,8.8079 21.9835,7.0949 C21.9125,5.8109 21.9835,4.4549 22.1265,3.1709 C22.1975,2.3149 22.4825,1.5299 22.4825,0.6729 C22.6965,-0.1111 22.2695,-0.1831 21.6265,0.3169" id="Fill-4" fill="#8386A8"></path>
                </g>
            </g>
        </g>
    </g>
</svg>