<?xml version="1.0" encoding="UTF-8"?>
<svg width="47px" height="46px" viewBox="0 0 47 46" version="1.1" xmlns="http://www.w3.org/2000/svg" xmlns:xlink="http://www.w3.org/1999/xlink">
    <!-- Generator: Sketch 49.1 (51147) - http://www.bohemiancoding.com/sketch -->
    <defs></defs>
    <g id="Page-1" stroke="none" stroke-width="1" fill="none" fill-rule="evenodd">
        <g id="Landing-page" transform="translate(-1361.000000, -9806.000000)" fill="#8386A8">
            <g id="social-icons" transform="translate(513.000000, 9804.000000)">
                <path d="M871.498531,2 C858.522125,2 848,12.5419309 848,25.548993 C848,35.9511105 854.73275,44.7770158 864.072531,47.8911755 C865.247531,48.1075183 865.676406,47.3804886 865.676406,46.7564793 C865.676406,46.1972257 865.655844,44.7166753 865.644094,42.751929 C859.106688,44.1750823 857.727531,39.5950894 857.727531,39.5950894 C856.65975,36.8753507 855.119031,36.1512644 855.119031,36.1512644 C852.984938,34.6898464 855.280594,34.7192808 855.280594,34.7192808 C857.637938,34.8855851 858.879031,37.1461472 858.879031,37.1461472 C860.976406,40.7445028 864.3795,39.7054684 865.719,39.1020632 C865.931969,37.5803046 866.540031,36.5427419 867.21125,35.9540539 C861.992781,35.359479 856.507,33.3402791 856.507,24.3171633 C856.507,21.7460683 857.422031,19.644452 858.926031,17.9975972 C858.683688,17.4015506 857.877344,15.0085338 859.155156,11.7663344 C859.155156,11.7663344 861.129156,11.1334948 865.617656,14.1799554 C867.49325,13.6574947 869.5025,13.3970003 871.501469,13.3866982 C873.4975,13.3970003 875.508219,13.6574947 877.385281,14.1799554 C881.870844,11.1334948 883.840438,11.7663344 883.840438,11.7663344 C885.122656,15.0085338 884.316312,17.4015506 884.073969,17.9975972 C885.580906,19.644452 886.490063,21.7460683 886.490063,24.3171633 C886.490063,33.3623549 880.995469,35.3535921 875.760844,35.9363933 C876.603906,36.663423 877.355906,38.0998218 877.355906,40.2970999 C877.355906,43.4451091 877.326531,45.9838262 877.326531,46.7564793 C877.326531,47.3863755 877.749531,48.1192921 878.942156,47.888232 C888.273125,44.7681855 895,35.948167 895,25.548993 C895,12.5419309 884.477875,2 871.498531,2" id="Github"></path>
            </g>
        </g>
    </g>
</svg>