<?xml version="1.0" encoding="UTF-8"?>
<svg width="48px" height="38px" viewBox="0 0 48 38" version="1.1" xmlns="http://www.w3.org/2000/svg" xmlns:xlink="http://www.w3.org/1999/xlink">
    <!-- Generator: Sketch 49.1 (51147) - http://www.bohemiancoding.com/sketch -->
    <defs></defs>
    <g id="Page-1" stroke="none" stroke-width="1" fill="none" fill-rule="evenodd">
        <g id="Landing-page" transform="translate(-616.000000, -9811.000000)" fill="#8386A8">
            <g id="social-icons" transform="translate(513.000000, 9804.000000)">
                <path d="M108.691847,14.752 C108.751573,14.1644615 108.526595,13.5835 108.086901,13.1881538 L103.604947,7.80421154 L103.604947,7 L117.520916,7 L128.277313,30.5238269 L137.734046,7 L151,7 L151,7.80421154 L147.168061,11.4679231 C146.837557,11.7193077 146.673771,12.1318269 146.74229,12.5403269 L146.74229,39.4596731 C146.673771,39.8681731 146.837557,40.2810577 147.168061,40.5320769 L150.910595,44.1957885 L150.910595,45 L132.086901,45 L132.086901,44.1957885 L135.963542,40.4429231 C136.344611,40.0629231 136.344611,39.9514808 136.344611,39.3705192 L136.344611,17.6115 L125.565863,44.9108462 L124.109374,44.9108462 L111.560122,17.6115 L111.560122,35.9077692 C111.455328,36.6769038 111.711817,37.4515192 112.25484,38.0076346 L117.296672,44.1066346 L117.296672,44.9108462 L103,44.9108462 L103,44.1066346 L108.042198,38.0076346 C108.581191,37.4504231 108.82229,36.6706923 108.691847,35.9077692 L108.691847,14.752 Z" id="Fill-1"></path>
            </g>
        </g>
    </g>
</svg>