<?xml version="1.0" encoding="UTF-8"?>
<svg width="48px" height="42px" viewBox="0 0 48 42" version="1.1" xmlns="http://www.w3.org/2000/svg" xmlns:xlink="http://www.w3.org/1999/xlink">
    <!-- Generator: Sketch 49.1 (51147) - http://www.bohemiancoding.com/sketch -->
    <defs></defs>
    <g id="Page-1" stroke="none" stroke-width="1" fill="none" fill-rule="evenodd">
        <g id="Landing-page" transform="translate(-513.000000, -9809.000000)" fill="#8386a8">
            <g id="social-icons" transform="translate(513.000000, 9804.000000)">
                <path d="M38.7804925,14.5401071 L18.0706577,31.7349961 C17.5983281,32.1155671 17.3073004,32.6687789 17.2713307,33.25728 L16.5446698,41.0416865 C16.5083368,41.3876601 16.0356439,41.4222575 15.9270081,41.1108812 L12.6207011,29.8321412 C12.475369,29.3820295 12.6570342,28.8980124 13.0930307,28.6558309 L38.4534951,14.1249388 C38.7078264,13.951952 38.9984907,14.332523 38.7804925,14.5401071 M45.5322008,5.13078492 L1.08513526,23.5518821 C-0.477338712,24.2133218 -0.311118076,26.462217 1.31751171,26.8921528 L10.2605144,29.2402639 C10.8256645,29.3725519 11.2907499,29.835229 11.4905471,30.3977835 L16.0117483,44.2549463 C16.4106779,45.5444231 18.1393725,45.9085457 19.0369639,44.8502421 L24.1565595,38.9634283 C24.7881979,38.2358446 25.8852541,38.1366286 26.6166249,38.7319244 L36.589863,46.6030575 C37.620431,47.4298572 39.1493284,46.9007054 39.448858,45.6108978 L47.9590221,7.14817616 C48.2585517,5.75915268 46.8619659,4.60163311 45.5322008,5.13078492" id="Fill-1"></path>
            </g>
        </g>
    </g>
</svg>