<?xml version="1.0" encoding="UTF-8"?>
<svg width="48px" height="40px" viewBox="0 0 48 40" version="1.1" xmlns="http://www.w3.org/2000/svg" xmlns:xlink="http://www.w3.org/1999/xlink">
    <!-- Generator: Sketch 49.1 (51147) - http://www.bohemiancoding.com/sketch -->
    <defs></defs>
    <g id="Page-1" stroke="none" stroke-width="1" fill="none" fill-rule="evenodd">
        <g id="Landing-page" transform="translate(-812.000000, -9810.000000)" fill="#8386A8">
            <g id="social-icons" transform="translate(513.000000, 9804.000000)">
                <path d="M347,10.7352835 C345.236309,11.5384615 343.337383,12.0816179 341.345483,12.3243048 C343.379644,11.0762008 344.940482,9.09714698 345.675823,6.73961719 C343.771263,7.89526905 341.666667,8.73600578 339.418384,9.18671 C337.626519,7.22499097 335.065504,6 332.231203,6 C326.796443,6 322.387216,10.5214879 322.387216,16.0975081 C322.387216,16.8891296 322.471738,17.6576381 322.640782,18.3972553 C314.456242,17.9754424 307.201444,13.9595522 302.341433,7.84326472 C301.493397,9.33983388 301.008804,11.0762008 301.008804,12.9252438 C301.008804,16.4268689 302.747139,19.5182376 305.389857,21.3297219 C303.778306,21.2806067 302.256911,20.8212351 300.9271,20.0700614 L300.9271,20.194294 C300.9271,25.0884796 304.322064,29.1708198 308.8299,30.0953413 C308.004402,30.3322499 307.133826,30.4507042 306.235077,30.4507042 C305.601162,30.4507042 304.981335,30.3900325 304.381229,30.2715782 C305.634971,34.2816901 309.269414,37.2026002 313.580032,37.2806067 C310.210424,39.9906103 305.961789,41.6056338 301.349709,41.6056338 C300.555203,41.6056338 299.769149,41.5594077 299,41.4669556 C303.358514,44.3271939 308.53689,46 314.095615,46 C332.211481,46 342.114633,30.6153846 342.114633,17.2704948 C342.114633,16.8313471 342.106181,16.3921993 342.089276,15.961719 C344.013559,14.5373781 345.684275,12.7605634 347,10.7352835" id="Twitter"></path>
            </g>
        </g>
    </g>
</svg>