<?xml version="1.0" encoding="UTF-8"?>
<svg viewBox="0 0 1475 300" version="1.1" xmlns="http://www.w3.org/2000/svg" xmlns:xlink="http://www.w3.org/1999/xlink">
    <!-- Generator: Sketch 57.1 (83088) - https://sketch.com -->
    <title>eterbase/logo/horizontal/for-dark-bg</title>
    <desc>Created with Sketch.</desc>
    <defs>
        <linearGradient x1="78.6886148%" y1="30.5365547%" x2="43.4938991%" y2="55.0582277%" id="linearGradient-1">
            <stop stop-color="#1AC5FC" offset="0%"></stop>
            <stop stop-color="#00A1EC" offset="100%"></stop>
        </linearGradient>
    </defs>
    <g id="eterbase/logo/horizontal/for-dark-bg" stroke="none" stroke-width="1" fill="none" fill-rule="evenodd">
        <g id="eterbase/logotype/for-dark-bg" transform="translate(300.000000, 0.000000)" fill="#FFFFFF" fill-rule="nonzero">
            <path d="M75,205 L75,183 L184.821429,183 L184.821429,205 L75,205 Z M75,139 L184.821429,139 L184.821429,161 L75,161 L75,139 Z M75,95 L184.821429,95 L184.821429,117 L75,117 L75,95 Z M250.714286,117 L206.858929,117 L206.785714,95 L316.607143,95 L316.607143,117 L272.678571,117 L272.678571,205 L250.714286,205 L250.714286,117 Z M338.571429,205 L338.571429,183 L448.392857,183 L448.392857,205 L338.571429,205 Z M338.571429,139 L448.392857,139 L448.392857,161 L338.571429,161 L338.571429,139 Z M338.571429,95 L448.392857,95 L448.392857,117 L338.571429,117 L338.571429,95 Z M503.010714,161 L470.357143,161 L470.357143,139 L539.910714,139 C552.113156,139 558.214286,135.33337 558.214286,128 C558.214286,120.66663 552.113156,117 539.910714,117 L470.357143,117 L470.357143,95 L543.571429,95 C567.976312,95 580.178571,105.99989 580.178571,128 C580.178571,150.00011 567.976312,161 543.571429,161 L536.7625,161 L588.305357,205 L554.553571,205 L503.010714,161 Z M602.142857,139 L675.357143,139 C685.119096,139 690,135.33337 690,128 C690,120.66663 683.898871,117 671.696429,117 L602.142857,117 L602.142857,95 L675.357143,95 C699.762027,95 711.964286,105.99989 711.964286,128 C711.964286,140.222283 708.303608,147.555543 700.982143,150 C708.303608,152.444457 711.964286,159.777717 711.964286,172 C711.964286,194.00011 699.762027,205 675.357143,205 L602.142857,205 L602.142857,183 L671.696429,183 C683.898871,183 690,179.33337 690,172 C690,164.66663 685.119096,161 675.357143,161 L602.142857,161 L602.142857,139 Z M820.980357,205 L785.251786,122.646667 L749.596429,205 L725.655357,205 L773.317857,95 L797.185714,95 L844.848214,205 L820.980357,205 Z M895,161 C870.595116,161 858.392857,150.00011 858.392857,128 C858.392857,105.99989 870.595116,95 895,95 L968.214286,95 L968.214286,117 L898.660714,117 C886.458272,117 880.357143,120.66663 880.357143,128 C880.357143,135.33337 886.458272,139 898.660714,139 L931.607143,139 C956.012027,139 968.214286,149.99989 968.214286,172 C968.214286,194.00011 956.012027,205 931.607143,205 L858.392857,205 L858.392857,183 L927.946429,183 C940.148871,183 946.25,179.33337 946.25,172 C946.25,164.66663 940.148871,161 927.946429,161 L895,161 Z M990.178571,205 L990.178571,183 L1100,183 L1100,205 L990.178571,205 Z M990.178571,139 L1100,139 L1100,161 L990.178571,161 L990.178571,139 Z M990.178571,95 L1100,95 L1100,117 L990.178571,117 L990.178571,95 Z" id="Logotype"></path>
        </g>
        <g id="eterbase/logomark" fill="url(#linearGradient-1)">
            <path d="M69.9,200 L213,200 C224.59798,200 234,209.40202 234,221 C234,232.480828 224.78696,241.809836 213.350774,241.99713 L213,242 L87,242 C75.5191716,242 66.1901639,232.78696 66.0028704,221.350774 L66,221 L66,203.9 C66,201.813399 67.638664,200.109529 69.6993065,200.005075 L69.9,200 L213,200 Z M54.001544,131.99664 L245.999904,131.999537 C255.941127,131.999687 264,140.058682 264,149.999904 C264,159.941083 255.941083,168 245.999904,168 L54.0018156,168 C44.0596874,168 36,159.940313 36,149.998184 C36,140.056206 44.0595658,131.99664 54.001544,131.99664 Z M213,58 C224.59798,58 234,67.4020203 234,79 C234,90.5979797 224.59798,100 213,100 L69.9,100 C67.7460895,100 66,98.2539105 66,96.1 L66,79 C66,67.4020203 75.4020203,58 87,58 L213,58 Z" id="Logomark" transform="translate(150.000000, 150.000000) rotate(-45.000000) translate(-150.000000, -150.000000) "></path>
        </g>
    </g>
</svg>
