<svg xmlns="http://www.w3.org/2000/svg" xmlns:xlink="http://www.w3.org/1999/xlink" viewBox="8.95 8.95 14.3 14.3">
  <g transform="translate(8.999 8.999)" style="fill: #32ba93">
    <g transform="matrix(1, 0, 0, 1, -9, -9)">
      <path d="M13.223,3.546a7.085,7.085,0,1,0-2.594,9.679,7.085,7.085,0,0,0,2.594-9.679ZM9.921,12a5.668,5.668,0,1,1,2.645-3.442A5.668,5.668,0,0,1,9.921,12ZM9.638,6.8,5.927,4.637c-.338-.2-.611-.04-.609.352l.019,4.3c0,.391.278.55.617.354L9.636,7.512a.376.376,0,0,0,0-.712Z" transform="translate(9 9)"/>
    </g>
    <g transform="matrix(1, 0, 0, 1, -9, -9)">
      <path d="M13.223,3.546a7.085,7.085,0,1,0-2.594,9.679,7.085,7.085,0,0,0,2.594-9.679ZM9.921,12a5.668,5.668,0,1,1,2.645-3.442A5.668,5.668,0,0,1,9.921,12ZM9.638,6.8,5.927,4.637c-.338-.2-.611-.04-.609.352l.019,4.3c0,.391.278.55.617.354L9.636,7.512a.376.376,0,0,0,0-.712Z" transform="translate(9 9)"/>
    </g>
  </g>
</svg>