<svg xmlns="http://www.w3.org/2000/svg" width="100" height="100" viewBox="0 0 900 899.9"><linearGradient id="a" gradientUnits="userSpaceOnUse" x1="340.925" y1="568.842" x2="509.69" y2="360.435"><stop offset=".011" stop-color="#4affcc"/><stop offset="1" stop-color="#5da5ff"/></linearGradient><path fill="url(#a)" d="M598.4 432.3L411.6 296.5c-6.9-5-16-5.7-23.5-1.9-7.6 3.8-12.3 11.6-12.3 20v271.6c0 8.5 4.7 16.3 12.3 20.1 3.2 1.6 6.7 2.4 10.2 2.4 4.6 0 9.3-1.5 13.2-4.4l186.9-135.7c5.9-4.3 9.3-11.1 9.3-18.2.1-7.1-3.4-13.8-9.3-18.1z"/><linearGradient id="b" gradientUnits="userSpaceOnUse" x1="166.809" y1="799.668" x2="733.192" y2="100.243"><stop offset=".011" stop-color="#4affcc"/><stop offset="1" stop-color="#5da5ff"/></linearGradient><path fill="url(#b)" d="M450 0C201.4 0 0 201.4 0 450c0 248.5 201.4 449.9 450 449.9 248.5 0 450-201.4 450-449.9C900 201.4 698.5 0 450 0zm0 824.8C243 824.8 75.2 657.1 75.2 450 75.2 243.1 243 75.1 450 75.1S824.8 243 824.8 450c0 207.1-167.8 374.8-374.8 374.8z"/></svg>