<svg xmlns="http://www.w3.org/2000/svg" viewBox="0 0 4386.46 1076.94"><defs><style>.cls-111{fill:#fff;}.cls-222{fill:#fff;}.cls-2223{fill:#000;}</style></defs><title>Ресурс 1</title><g id="Слой_2" data-name="Слой 2"><g id="Слой_1-2" data-name="Слой 1"><polygon class="cls-111" points="936.38 807.7 468.19 1076.94 0 807.7 0 269.24 468.19 0 936.38 269.24 936.38 807.7"/><path class="cls-2223" d="M772.77,350.33,468.16,173.27,163.6,350.33h0V709.82l88.71,46.87V402.53L468.16,529.47ZM468.16,263.62,618,350.73,468.16,438.86,318.35,350.73Z"/><path class="cls-111" d="M1157.66,800.27V286a14.65,14.65,0,0,1,15.47-16.21h236.53a153.59,153.59,0,0,1,68.89,15.47,176.82,176.82,0,0,1,53.8,40.53,187.52,187.52,0,0,1,35,57.1,179.45,179.45,0,0,1,.45,130.7,185.09,185.09,0,0,1-34.17,56.73,168.26,168.26,0,0,1-53.06,40.16,153.83,153.83,0,0,1-68.36,15.09H1299.13V800.18c0,10.83-5.7,16.21-17.09,16.21H1173.13Q1157.67,816.53,1157.66,800.27Zm221-414.08h-79.57v123h79.57q27.25,0,42-18.8a66.74,66.74,0,0,0,14.72-42.38,63.43,63.43,0,0,0-4-22.1A71.8,71.8,0,0,0,1420.34,406a53.83,53.83,0,0,0-17.69-14.24A51.34,51.34,0,0,0,1378.7,386.19Z"/><path class="cls-111" d="M1769.22,800.27V286a18.78,18.78,0,0,1,3.62-11.05,13.46,13.46,0,0,1,11.79-5.16h244.65a158.26,158.26,0,0,1,71.09,15.95,181.7,181.7,0,0,1,55.25,41.64,186.34,186.34,0,0,1,35.88,58.44A188.33,188.33,0,0,1,2204,453.24,160.67,160.67,0,0,1,2179.34,538a203,203,0,0,1-65.22,66.3l105.38,196a11.37,11.37,0,0,1,1.45,11.05c-1.45,3.45-4.9,5.16-10.31,5.16H2078a18.9,18.9,0,0,1-11.79-2.85A36.3,36.3,0,0,1,2058,801.1l-87.66-166.53h-59V800.36c0,10.82-5.39,16.2-16.21,16.2H1784.69C1774.41,816.48,1769.22,811.09,1769.22,800.27Zm224-417h-81.79V516.6h81.79a61.83,61.83,0,0,0,26.52-5.52,69.22,69.22,0,0,0,20.65-14.61A64.83,64.83,0,0,0,2054,475.08a66.94,66.94,0,0,0,4.81-24.69,65.14,65.14,0,0,0-4.81-23.95,69.46,69.46,0,0,0-13.61-21.73,71.31,71.31,0,0,0-20.65-15.47A58.46,58.46,0,0,0,1993.22,383.23Z"/><path class="cls-111" d="M2372,543.86a274.7,274.7,0,0,1,22.11-110,288.79,288.79,0,0,1,60-89.63,281.27,281.27,0,0,1,308.84-60.43,283.47,283.47,0,0,1,149.84,150.06,283.66,283.66,0,0,1,0,219.47,280.29,280.29,0,0,1-60.49,89.17,288.68,288.68,0,0,1-89.52,60,282.84,282.84,0,0,1-219.29,0,279.45,279.45,0,0,1-149.58-149.21A273,273,0,0,1,2372,543.86Zm142.21-.74a156.93,156.93,0,0,0,10.31,57.47,141,141,0,0,0,28.73,46.06,135,135,0,0,0,44.21,30.93,138.89,138.89,0,0,0,156.21-30.93,140.29,140.29,0,0,0,28.74-46.06,156.93,156.93,0,0,0,10.31-57.47,154.92,154.92,0,0,0-10.31-56.73A144.84,144.84,0,0,0,2753.62,440a132.51,132.51,0,0,0-44.2-31.32,143,143,0,0,0-112,0A132.31,132.31,0,0,0,2553.2,440a145.45,145.45,0,0,0-28.73,46.43,154.72,154.72,0,0,0-10.31,56.73Z"/><path class="cls-111" d="M3147.82,269.76h216.62a148,148,0,0,1,56.39,10.69,143.43,143.43,0,0,1,45.57,29.47,141.06,141.06,0,0,1,31,44.15,133.91,133.91,0,0,1,11.4,55.65,129.59,129.59,0,0,1-17.69,67.38,152.7,152.7,0,0,1-45.57,49,136.36,136.36,0,0,1,36.85,22.47,153.09,153.09,0,0,1,47.88,72.94,151.14,151.14,0,0,1,6.66,44.6,149.32,149.32,0,0,1-11.07,56.73,152,152,0,0,1-30.59,47.9,147.17,147.17,0,0,1-46,32.78,142.81,142.81,0,0,1-56.76,12.88H3147.11c-7.38,0-11.08-3.42-11.08-10.31V283.75Q3136,269.77,3147.82,269.76Zm318.32,140a99.09,99.09,0,0,0-7.74-39.44,89.5,89.5,0,0,0-21.73-30.93,105.46,105.46,0,0,0-32.41-20.28,108.67,108.67,0,0,0-40.53-7.37H3178V512.19h185.69a104.4,104.4,0,0,0,40.13-7.75,99.66,99.66,0,0,0,54.54-54.11A103.44,103.44,0,0,0,3466.14,409.77Zm28,256.33a107.36,107.36,0,0,0-8.54-41.64,124.32,124.32,0,0,0-22.47-35.74,113.71,113.71,0,0,0-32.79-25.07,87.69,87.69,0,0,0-40.15-9.57H3178V774.41h214.4a90.62,90.62,0,0,0,39.87-8.86A104.07,104.07,0,0,0,3464.38,742a115.39,115.39,0,0,0,21.76-34.18,107.86,107.86,0,0,0,8-41.61Z"/><path class="cls-111" d="M3745.39,803.23V283q0-13.25,14-13.25h14.75q13.95,0,14,13.25V803.23q0,13.24-14,13.25h-14.75Q3745.37,816.48,3745.39,803.23Z"/><path class="cls-111" d="M3986.34,269.76h385.37a16.86,16.86,0,0,1,10.31,3.31,11.65,11.65,0,0,1,4.41,9.94v16.23c0,8.83-4.93,13.25-14.72,13.25H4200.83V803.23c0,8.83-4.45,13.25-13.28,13.25h-15.49q-13.25,0-13.24-13.25V312.49H3986.34q-13.28,0-13.27-14.73V283Q3973.07,269.77,3986.34,269.76Z"/></g></g></svg>