<?xml version="1.0" encoding="UTF-8"?>
<svg width="21px" height="21px" viewBox="0 0 21 21" version="1.1" xmlns="http://www.w3.org/2000/svg" xmlns:xlink="http://www.w3.org/1999/xlink">
    <!-- Generator: Sketch 49.1 (51147) - http://www.bohemiancoding.com/sketch -->
    <title>Page 1</title>
    <desc>Created with Sketch.</desc>
    <defs></defs>
    <g id="Page-1" stroke="none" stroke-width="1" fill="none" fill-rule="evenodd">
        <g id="Landing-page" transform="translate(-380.000000, -2345.000000)" fill="#6E7195">
            <g id="membrana-platform-components" transform="translate(380.000000, 2014.000000)">
                <g id="for-investors">
                    <g id="text" transform="translate(0.000000, 153.000000)">
                        <g id="Page-1" transform="translate(0.000000, 178.000000)">
                            <path d="M19.5681818,18.375 C19.5681818,18.879 19.1395909,19.2880435 18.6136364,19.2880435 L1.90909091,19.2880435 C1.38313636,19.2880435 0.954545455,18.879 0.954545455,18.375 L0.954545455,1.82608696 C0.954545455,1.32208696 1.38313636,0.913043478 1.90909091,0.913043478 L14.1769091,0.913043478 L14.1769091,6.06991304 L19.5681818,6.06991304 L19.5681818,18.375 Z M18.8933182,5.15686957 L15.1314545,5.15686957 L15.1314545,1.55856522 L18.8933182,5.15686957 Z M15.1476818,0.283956522 L14.8517727,0 L1.90909091,0 C0.856227273,0 0,0.819 0,1.82608696 L0,18.375 C0,19.382087 0.856227273,20.201087 1.90909091,20.201087 L18.6136364,20.201087 C19.6665,20.201087 20.5227273,19.382087 20.5227273,18.375 L20.5227273,5.4243913 L15.1476818,0.283956522 Z" id="Fill-1"></path>
                            <polygon id="Fill-3" points="11.8461 9.38544783 13.4172818 10.8883174 5.12419091 10.8883174 5.12419091 11.8013609 13.4172818 11.8013609 11.8461 13.3051435 12.5209636 13.9506652 15.2452364 11.3448391 12.5209636 8.73992609"></polygon>
                        </g>
                    </g>
                </g>
            </g>
        </g>
    </g>
</svg>